<svg width="32" height="32" viewBox="0 0 32 32" fill="none" xmlns="http://www.w3.org/2000/svg">
<g clip-path="url(#clip0_1_2777)">
<path d="M16 0.5C24.5599 0.5 31.5 7.44014 31.5 16C31.5 24.5599 24.5599 31.5 16 31.5C7.44014 31.5 0.5 24.5599 0.5 16C0.5 7.44014 7.44014 0.5 16 0.5Z" stroke="#AEAEAE"/>
<path d="M19.6106 16.499H17.2676V25H13.7548V16.5H12V13.57H13.7548V11.811C13.7548 9.42103 14.7458 8 17.5606 8H19.9046V10.93H18.4396C17.344 10.93 17.2708 11.3401 17.2708 12.103L17.2676 13.57H19.9213L19.6106 16.499Z" fill="#316FF6"/>
</g>
<defs>
<clipPath id="clip0_1_2777">
<rect width="32" height="32" fill="white"/>
</clipPath>
</defs>
</svg>
