<svg width="101" height="68" viewBox="0 0 101 68" fill="none" xmlns="http://www.w3.org/2000/svg">
<path d="M13.728 32.6836L34.6444 60.0436C34.6444 60.0436 41.857 74.4437 55.5608 63.6436C59.1671 59.3236 101 11.0835 101 11.0835L93.7873 7.48349C93.7873 7.48349 85.125 3.88348 77.1985 7.48349C77.1985 7.48349 73.9528 7.84349 65.2977 17.2035C65.2977 17.2035 59.5277 23.6835 47.2664 40.9636C40.0538 33.0436 37.1688 28.0035 27.7925 27.2835C23.465 27.2835 18.4162 28.0035 13.728 32.6836Z" fill="white" fill-opacity="0.5"/>
<path d="M2.05378 45.6925L0 48.516C0 48.516 2.05378 50.7344 5.6569 52.175C9.26002 53.6156 16.7833 56.4967 27.4342 48.9338C30.7202 46.0527 40.9675 33.4478 46.7325 26.9653C46.7325 26.9653 55.5169 40.2472 66.6145 40.4489C69.3601 40.8523 76.0907 39.1236 79.4272 35.9256C68.8052 21.6065 61.8656 11.8395 57.5418 6.07733C55.38 3.19623 52.4975 1.0354 48.8943 0.315121C45.2912 -0.405155 42.4087 -0.405155 36.6437 6.07733C30.8787 12.5598 7.09815 39.9303 2.05378 45.6925Z" fill="white" fill-opacity="0.5"/>
<path d="M27.7925 27.2837C33.8993 27.7526 37.2516 30.0553 40.8403 33.7915C35.591 39.9618 29.7637 46.8914 27.4341 48.9341C27.1517 49.1346 26.8702 49.3262 26.5923 49.5122L13.728 32.6841C18.4162 28.0041 23.465 27.2837 27.7925 27.2837ZM65.519 16.9653C69.2321 22.0694 73.8165 28.3626 79.4272 35.9263C76.0908 39.1243 69.3593 40.8531 66.6138 40.4497C61.0761 40.3489 56.1143 36.9909 52.5327 33.6519C61.1878 21.8211 65.2974 17.2036 65.2974 17.2036C65.3715 17.1234 65.4457 17.0442 65.519 16.9653Z" fill="white"/>
</svg>
