<svg width="32" height="32" viewBox="0 0 32 32" fill="none" xmlns="http://www.w3.org/2000/svg">
<g clip-path="url(#clip0_1_2788)">
<path d="M16 0.5C24.5599 0.5 31.5 7.44014 31.5 16C31.5 24.5599 24.5599 31.5 16 31.5C7.44014 31.5 0.5 24.5599 0.5 16C0.5 7.44014 7.44014 0.5 16 0.5Z" stroke="#AEAEAE"/>
<path d="M21.1761 8H23.9362L17.9061 14.8919L25 24.2703H19.4447L15.0943 18.5824L10.1164 24.2703H7.35461L13.8043 16.8986L7 8H12.6946L16.627 13.199L21.1761 8ZM20.2073 22.6183H21.7368L11.8644 9.56529H10.2232L20.2073 22.6183Z" fill="black"/>
</g>
<defs>
<clipPath id="clip0_1_2788">
<rect width="32" height="32" fill="white"/>
</clipPath>
</defs>
</svg>
